{
  "accessors": [
    {
      "bufferView": 0,
      "componentType": 5126,
      "count": 5249,
      "max": [
        0.032964076846838,
        0.03292805701494217,
        0.12226704508066177
      ],
      "min": [
        -0.0330049991607666,
        -0.03295300155878067,
        4.600000102072954e-05
      ],
      "type": "VEC3"
    },
    {
      "bufferView": 1,
      "componentType": 5125,
      "count": 16125,
      "type": "SCALAR"
    },
    {
      "bufferView": 2,
      "componentType": 5126,
      "count": 5249,
      "type": "VEC3"
    },
    {
      "bufferView": 3,
      "componentType": 5126,
      "count": 5249,
      "type": "VEC4"
    },
    {
      "bufferView": 4,
      "componentType": 5126,
      "count": 5249,
      "type": "VEC2"
    }
  ],
  "asset": {
    "version": "2.0"
  },
  "bufferViews": [
    {
      "buffer": 0,
      "byteLength": 62988,
      "target": 34962
    },
    {
      "buffer": 1,
      "byteLength": 64500,
      "target": 34963
    },
    {
      "buffer": 2,
      "byteLength": 62988,
      "target": 34962
    },
    {
      "buffer": 3,
      "byteLength": 83984,
      "target": 34962
    },
    {
      "buffer": 4,
      "byteLength": 41992,
      "target": 34962
    }
  ],
  "buffers": [
    {
      "byteLength": 62988,
      "uri": "data:application/octet-stream;base64,"
    },
    {
      "byteLength": 64500,
      "uri": "data:application/octet-stream;base64,"
    },
    {
      "byteLength": 62988,
      "uri": "data:application/octet-stream;base64,"
    },
    {
      "byteLength": 83984,
      "uri": "data:application/octet-stream;base64,"
    },
    {
      "byteLength": 41992,
      "uri": "data:application/octet-stream;base64,"
    }
  ],
  "images": [
    {
      "uri": "textures/pr_cokeCan_rough.combined.png"
    },
    {
      "uri": "textures/pr_cokeCan_albedo.png"
    },
    {
      "uri": "textures/pr_cokeCan_ao.png"
    },
    {
      "uri": "textures/pr_cokeCan_nrm.png"
    }
  ],
  "materials": [
    {
      "doubleSided": true,
      "name": "pr_cokeCan",
      "normalTexture": {
        "index": 3
      },
      "occlusionTexture": {
        "index": 2
      },
      "pbrMetallicRoughness": {
        "baseColorTexture": {
          "index": 1
        },
        "metallicFactor": 0.0,
        "metallicRoughnessTexture": {
          "index": 0
        },
        "roughnessFactor": 0.6000000238418579
      }
    }
  ],
  "meshes": [
    {
      "primitives": [
        {
          "attributes": {
            "NORMAL": 2,
            "POSITION": 0,
            "TANGENT": 3,
            "TEXCOORD_0": 4
          },
          "indices": 1,
          "material": 0,
          "mode": 5
        }
      ]
    }
  ],
  "nodes": [
    {
      "mesh": 0,
      "name": "_gltfNode_0"
    },
    {
      "children": [
        0
      ],
      "name": "GLTF Converted Scene",
      "rotation": [
        -0.7071067811865475,
        0.0,
        0.0,
        0.7071067811865476
      ],
      "scale": [
        1.0,
        1.0,
        1.0
      ],
      "translation": [
        0.0,
        0.0,
        0.0
      ]
    }
  ],
  "samplers": [
    {
      "magFilter": 9729,
      "minFilter": 9987,
      "wrapS": 10497,
      "wrapT": 10497
    },
    {
      "magFilter": 9729,
      "minFilter": 9987,
      "wrapS": 10497,
      "wrapT": 10497
    },
    {
      "magFilter": 9729,
      "minFilter": 9987,
      "wrapS": 10497,
      "wrapT": 10497
    },
    {
      "magFilter": 9729,
      "minFilter": 9987,
      "wrapS": 10497,
      "wrapT": 10497
    }
  ],
  "scene": 0,
  "scenes": [
    {
      "nodes": [
        1
      ]
    }
  ],
  "textures": [
    {
      "sampler": 0,
      "source": 0
    },
    {
      "sampler": 1,
      "source": 1
    },
    {
      "sampler": 2,
      "source": 2
    },
    {
      "sampler": 3,
      "source": 3
    }
  ]
}
