{
  "accessors": [
    {
      "bufferView": 0,
      "componentType": 5126,
      "count": 933,
      "max": [
        0.009159999899566174,
        0.009109999053180218,
        0.01609301194548607
      ],
      "min": [
        -0.00918199960142374,
        -0.00902900006622076,
        -3.000000106112566e-06
      ],
      "type": "VEC3"
    },
    {
      "bufferView": 1,
      "componentType": 5125,
      "count": 2414,
      "type": "SCALAR"
    },
    {
      "bufferView": 2,
      "componentType": 5126,
      "count": 933,
      "type": "VEC3"
    },
    {
      "bufferView": 3,
      "componentType": 5126,
      "count": 933,
      "type": "VEC4"
    },
    {
      "bufferView": 4,
      "componentType": 5126,
      "count": 933,
      "type": "VEC2"
    },
    {
      "bufferView": 5,
      "componentType": 5126,
      "count": 933,
      "max": [
        0.009159999899566174,
        0.009109999053180218,
        0.01609301194548607
      ],
      "min": [
        -0.00918199960142374,
        -0.00902900006622076,
        -3.000000106112566e-06
      ],
      "type": "VEC3"
    },
    {
      "bufferView": 6,
      "componentType": 5125,
      "count": 150,
      "type": "SCALAR"
    },
    {
      "bufferView": 7,
      "componentType": 5126,
      "count": 933,
      "type": "VEC3"
    },
    {
      "bufferView": 8,
      "componentType": 5126,
      "count": 933,
      "type": "VEC4"
    },
    {
      "bufferView": 9,
      "componentType": 5126,
      "count": 933,
      "type": "VEC2"
    }
  ],
  "asset": {
    "version": "2.0"
  },
  "bufferViews": [
    {
      "buffer": 0,
      "byteLength": 11196,
      "target": 34962
    },
    {
      "buffer": 1,
      "byteLength": 9656,
      "target": 34963
    },
    {
      "buffer": 2,
      "byteLength": 11196,
      "target": 34962
    },
    {
      "buffer": 3,
      "byteLength": 14928,
      "target": 34962
    },
    {
      "buffer": 4,
      "byteLength": 7464,
      "target": 34962
    },
    {
      "buffer": 0,
      "byteLength": 11196,
      "target": 34962
    },
    {
      "buffer": 5,
      "byteLength": 600,
      "target": 34963
    },
    {
      "buffer": 2,
      "byteLength": 11196,
      "target": 34962
    },
    {
      "buffer": 3,
      "byteLength": 14928,
      "target": 34962
    },
    {
      "buffer": 4,
      "byteLength": 7464,
      "target": 34962
    }
  ],
  "buffers": [
    {
      "byteLength": 11196,
      "uri": "data:application/octet-stream;base64,"
    },
    {
      "byteLength": 9656,
      "uri": "data:application/octet-stream;base64,"
    },
    {
      "byteLength": 11196,
      "uri": "data:application/octet-stream;base64,"
    },
    {
      "byteLength": 14928,
      "uri": "data:application/octet-stream;base64,"
    },
    {
      "byteLength": 7464,
      "uri": "data:application/octet-stream;base64,"
    },
    {
      "byteLength": 600,
      "uri": "data:application/octet-stream;base64,"
    }
  ],
  "images": [
    {
      "uri": "textures/fr_gourmetBlueberrySM_rough.combined.png"
    },
    {
      "uri": "textures/fr_gourmetBlueberrySM_albedo.png"
    },
    {
      "uri": "textures/fr_gourmetBlueberrySM_ao.png"
    },
    {
      "uri": "textures/fr_gourmetBlueberrySM_nrm.png"
    }
  ],
  "materials": [
    {
      "doubleSided": true,
      "name": "fr_gourmetBlueberrySM",
      "normalTexture": {
        "index": 3
      },
      "occlusionTexture": {
        "index": 2
      },
      "pbrMetallicRoughness": {
        "baseColorTexture": {
          "index": 1
        },
        "metallicFactor": 0.0,
        "metallicRoughnessTexture": {
          "index": 0
        },
        "roughnessFactor": 0.8500000238418579
      }
    }
  ],
  "meshes": [
    {
      "primitives": [
        {
          "attributes": {
            "NORMAL": 2,
            "POSITION": 0,
            "TANGENT": 3,
            "TEXCOORD_0": 4
          },
          "indices": 1,
          "material": 0,
          "mode": 5
        },
        {
          "attributes": {
            "NORMAL": 7,
            "POSITION": 5,
            "TANGENT": 8,
            "TEXCOORD_0": 9
          },
          "indices": 6,
          "material": 0,
          "mode": 4
        }
      ]
    }
  ],
  "nodes": [
    {
      "mesh": 0,
      "name": "_gltfNode_0"
    },
    {
      "children": [
        0
      ],
      "name": "GLTF Converted Scene",
      "rotation": [
        -0.7071067811865475,
        0.0,
        0.0,
        0.7071067811865476
      ],
      "scale": [
        1.0,
        1.0,
        1.0
      ],
      "translation": [
        0.0,
        0.0,
        0.0
      ]
    }
  ],
  "samplers": [
    {
      "magFilter": 9729,
      "minFilter": 9987,
      "wrapS": 10497,
      "wrapT": 10497
    },
    {
      "magFilter": 9729,
      "minFilter": 9987,
      "wrapS": 10497,
      "wrapT": 10497
    },
    {
      "magFilter": 9729,
      "minFilter": 9987,
      "wrapS": 10497,
      "wrapT": 10497
    },
    {
      "magFilter": 9729,
      "minFilter": 9987,
      "wrapS": 10497,
      "wrapT": 10497
    }
  ],
  "scene": 0,
  "scenes": [
    {
      "nodes": [
        1
      ]
    }
  ],
  "textures": [
    {
      "sampler": 0,
      "source": 0
    },
    {
      "sampler": 1,
      "source": 1
    },
    {
      "sampler": 2,
      "source": 2
    },
    {
      "sampler": 3,
      "source": 3
    }
  ]
}
