{
  "accessors": [
    {
      "bufferView": 0,
      "componentType": 5126,
      "count": 605,
      "max": [
        0.03769199550151825,
        0.03041403740644455,
        0.050610046833753586
      ],
      "min": [
        -0.03674900159239769,
        -0.03273100033402443,
        0.000155999994603917
      ],
      "type": "VEC3"
    },
    {
      "bufferView": 1,
      "componentType": 5125,
      "count": 1687,
      "type": "SCALAR"
    },
    {
      "bufferView": 2,
      "componentType": 5126,
      "count": 605,
      "type": "VEC3"
    },
    {
      "bufferView": 3,
      "componentType": 5126,
      "count": 605,
      "type": "VEC4"
    },
    {
      "bufferView": 4,
      "componentType": 5126,
      "count": 605,
      "type": "VEC2"
    }
  ],
  "asset": {
    "version": "2.0"
  },
  "bufferViews": [
    {
      "buffer": 0,
      "byteLength": 7260,
      "target": 34962
    },
    {
      "buffer": 1,
      "byteLength": 6748,
      "target": 34963
    },
    {
      "buffer": 2,
      "byteLength": 7260,
      "target": 34962
    },
    {
      "buffer": 3,
      "byteLength": 9680,
      "target": 34962
    },
    {
      "buffer": 4,
      "byteLength": 4840,
      "target": 34962
    }
  ],
  "buffers": [
    {
      "byteLength": 7260,
      "uri": "data:application/octet-stream;base64,"
    },
    {
      "byteLength": 6748,
      "uri": "data:application/octet-stream;base64,"
    },
    {
      "byteLength": 7260,
      "uri": "data:application/octet-stream;base64,"
    },
    {
      "byteLength": 9680,
      "uri": "data:application/octet-stream;base64,"
    },
    {
      "byteLength": 4840,
      "uri": "data:application/octet-stream;base64,"
    }
  ],
  "images": [
    {
      "uri": "textures/vg_redPotato_rough.combined.png"
    },
    {
      "uri": "textures/vg_redPotato_albedo.png"
    },
    {
      "uri": "textures/vg_redPotato_nrm.png"
    }
  ],
  "materials": [
    {
      "doubleSided": true,
      "name": "vg_redPotato",
      "normalTexture": {
        "index": 2
      },
      "pbrMetallicRoughness": {
        "baseColorTexture": {
          "index": 1
        },
        "metallicFactor": 0.0,
        "metallicRoughnessTexture": {
          "index": 0
        },
        "roughnessFactor": 0.800000011920929
      }
    }
  ],
  "meshes": [
    {
      "primitives": [
        {
          "attributes": {
            "NORMAL": 2,
            "POSITION": 0,
            "TANGENT": 3,
            "TEXCOORD_0": 4
          },
          "indices": 1,
          "material": 0,
          "mode": 5
        }
      ]
    }
  ],
  "nodes": [
    {
      "mesh": 0,
      "name": "_gltfNode_0"
    },
    {
      "children": [
        0
      ],
      "name": "GLTF Converted Scene",
      "rotation": [
        -0.7071067811865475,
        0.0,
        0.0,
        0.7071067811865476
      ],
      "scale": [
        1.0,
        1.0,
        1.0
      ],
      "translation": [
        0.0,
        0.0,
        0.0
      ]
    }
  ],
  "samplers": [
    {
      "magFilter": 9729,
      "minFilter": 9987,
      "wrapS": 10497,
      "wrapT": 10497
    },
    {
      "magFilter": 9729,
      "minFilter": 9987,
      "wrapS": 10497,
      "wrapT": 10497
    },
    {
      "magFilter": 9729,
      "minFilter": 9987,
      "wrapS": 10497,
      "wrapT": 10497
    }
  ],
  "scene": 0,
  "scenes": [
    {
      "nodes": [
        1
      ]
    }
  ],
  "textures": [
    {
      "sampler": 0,
      "source": 0
    },
    {
      "sampler": 1,
      "source": 1
    },
    {
      "sampler": 2,
      "source": 2
    }
  ]
}
